<?xml version="1.0" encoding="utf-8"?>
<!-- Generator: Adobe Illustrator 17.0.0, SVG Export Plug-In . SVG Version: 6.00 Build 0)  -->
<!DOCTYPE svg PUBLIC "-//W3C//DTD SVG 1.1//EN" "http://www.w3.org/Graphics/SVG/1.1/DTD/svg11.dtd">
<svg version="1.1" id="Layer_1" xmlns="http://www.w3.org/2000/svg" xmlns:xlink="http://www.w3.org/1999/xlink" x="0px" y="0px"
	 width="341.058px" height="336.141px" viewBox="0 0 341.058 336.141" enable-background="new 0 0 341.058 336.141"
	 xml:space="preserve">
<g>
	<path fill="#FEFEFE" d="M15.396,238.225"/>
	<path fill="#FEFEFE" d="M20.696,260.167c-8.888-15.581-15.488-32.08-18.966-49.704c-0.378-1.916-0.453-3.943-1.73-5.597
		c0-8.008,0-16.016,0-24.024c0.58-0.286,1.16-0.572,1.74-0.858"/>
	<path fill="#FEFEFE" d="M44.344,281.927c14.661,15.083,30.719,27.628,49.971,36.643c15.726,7.364,32.125,11.534,49.115,14.158
		c8.963,1.384,17.979,2.238,27.046,2.598c0.644,0.026,1.268,0.532,1.901,0.814c-13.349,0-26.698,0-40.047,0
		c-5.85-2.974-12.495-3.024-18.661-4.979c-22.234-7.052-42.814-16.663-60.188-32.615"/>
	<path fill="#F6F6F6" d="M23.506,83.887c0.643-2.294,2.034-4.166,3.482-6.006c2.337-3.709,4.301-7.644,6.965-11.154"/>
	<path fill="#F6F6F6" d="M10.735,113.673c0.083-0.242,0.383-0.411,0.582-0.614c1.321-4.333,2.684-8.652,4.353-12.87
		c0.621-2.108,0.825-4.391,2.611-6.006"/>
	<path fill="#F6F6F6" d="M2.87,165.714"/>
	<path fill="#F6F6F6" d="M330.524,89.633"/>
	<path fill="#F6F6F6" d="M302.817,48.64"/>
	<path fill="#F7F7F7" d="M26.174,250.783"/>
	<path fill="#F7F7F7" d="M33.953,262.352"/>
	<path fill="#F7F7F7" d="M37.834,62.38c-1.085,1.565-1.836,3.561-3.882,4.347"/>
	<path fill="#F7F7F7" d="M33.953,262.352"/>
	<path fill="#F7F7F7" d="M47.882,279.512"/>
	<path fill="#F7F7F7" d="M300.352,279.512"/>
	<path fill="#F7F7F7" d="M314.281,262.352"/>
	<path fill="#F7F7F7" d="M275.976,300.962"/>
	<path fill="#F7F7F7" d="M290.776,288.95"/>
	<path fill="#F7F7F7" d="M72.259,300.962c-5.729-3.052-10.587-7.146-14.8-12.012"/>
	<path fill="#F7F7F7" d="M33.953,66.727"/>
	<path fill="#F7F7F7" d="M314.281,262.352"/>
	<path fill="#F7F7F7" d="M321.246,251.198"/>
	<path fill="#F7F7F7" d="M332.564,228.89"/>
	<path fill="#F7F7F7" d="M336.917,216.02"/>
	<path fill="#F7F7F7" d="M11.317,113.059"/>
	<path fill="#F7F7F7" d="M268.14,306.11c-2.999,2.818-6.483,4.818-10.447,6.006"/>
	<path fill="#F7F7F7" d="M90.541,312.117c-3.964-1.188-7.448-3.188-10.447-6.006"/>
	<path fill="#F7F7F7" d="M324.728,245.192"/>
	<path fill="#F7F7F7" d="M329.952,234.896"/>
	<path fill="#F7F7F7" d="M23.506,83.887"/>
	<path fill="#F7F7F7" d="M56.588,288.092"/>
	<path fill="#F7F7F7" d="M299.482,280.37"/>
	<path fill="#F7F7F7" d="M168.023,332.709c4.063,0,8.126,0,12.188,0C176.149,334.093,172.086,334.093,168.023,332.709z"/>
	<path fill="#F7F7F7" d="M268.14,306.11"/>
	<path fill="#F7F7F7" d="M72.259,300.962"/>
	<path fill="#F7F7F7" d="M90.541,312.117c2.902,0.914,5.818,1.805,7.835,4.29C95.474,315.492,92.558,314.602,90.541,312.117z"/>
	<path fill="#F7F7F7" d="M257.693,312.117c-2.017,2.485-4.933,3.376-7.835,4.29"/>
	<path fill="#EDEDED" d="M12.188,203.15c-3.559-13.838-5.598-27.887-5.181-42.17c0.623-21.31,6.004-41.57,14.474-61.113
		C27.606,85.736,35.966,72.936,45.67,61.03c13.18-16.172,29.383-28.94,47.522-39.372c15.504-8.917,32.145-14.977,49.669-18.507
		c13.86-2.792,27.803-3.835,42.092-2.697c22.421,1.785,43.397,7.881,63.247,17.901c29.714,14.999,52.883,36.93,69.863,65.257
		c9.657,16.11,16.32,33.365,20.065,51.655c4.815,23.516,3.584,46.829-2.889,69.974c-6.16,22.028-16.396,41.975-30.682,59.887
		c-10.503,13.169-22.993,24.291-36.89,33.95c-19.683,13.681-41.478,22.37-64.934,27.225c-23.767,4.919-47.302,3.728-70.556-3.008
		c-2.584-0.748-5.47-0.75-7.684-2.597c-0.289-0.463-0.215-0.861,0.218-1.196c2.703-0.986,5.136,0.273,7.567,1.025
		c16.8,5.199,34.095,6.982,51.508,5.723c34.692-2.508,65.407-15.38,92.327-36.897c18.915-15.118,34.036-33.477,44.872-54.987
		c8.943-17.752,14.871-36.435,16.692-56.381c1.591-17.419,0.143-34.432-4.463-51.248c-4.128-14.009-9.432-27.534-16.972-40.149
		c-0.958-1.603-1.867-3.216-3.238-4.518c-5.737-6.446-10.015-13.978-15.817-20.401c-13.593-15.049-28.822-28.079-46.862-37.735
		c-4.199-2.247-8.383-4.518-12.525-6.876c-4.958-3.422-10.777-4.904-16.352-6.825c-18.289-6.303-37.252-8.608-56.496-7.446
		c-23.308,1.407-45.045,8.385-65.724,19.1c-18.636,9.656-34.535,22.628-48.289,38.031c-13.379,14.983-23.674,32.005-30.819,50.818
		c-7.247,19.082-10.961,38.724-10.224,59.099c0.351,9.699,1.828,19.289,3.9,28.782c0.329,1.507,1.179,2.973,0.335,4.564
		C13.477,203.69,12.829,203.61,12.188,203.15z"/>
	<path fill="#EEEDED" d="M12.188,203.15c0.58,0,1.159,0,1.739,0c1.778,1.115,2.053,3.071,2.578,4.796
		c6.62,21.743,17.301,41.396,32.171,58.653c13.369,15.515,28.76,28.819,46.985,38.768c8.127,4.437,16.519,8.201,25.129,11.577
		c1.418,0.556,3.57,0.585,3.703,2.895c0,0.286,0,0.572,0,0.858c-9.11-1.998-17.502-5.894-25.63-10.169
		c-16.653-8.759-31.87-19.571-44.836-33.179c-10.207-10.712-18.852-22.567-26.187-35.421
		C20.837,229.655,16.472,216.44,12.188,203.15z"/>
	<path fill="#E2E1E1" d="M238.541,16.962c10.919,4.603,20.985,10.623,30.503,17.6c16.593,12.163,30.724,26.6,41.994,43.722
		c0.702,1.067,1.577,2.023,2.372,3.031c1.62,4.935,4.633,9.191,7.007,13.751c9.565,18.375,15.308,37.694,16.911,58.386
		c2.908,37.539-8.149,70.871-29.795,101.323c-16.001,22.512-36.472,39.956-60.956,52.95c-1.66,0.881-3.21,1.937-4.701,3.076
		c-0.764,0.529-1.581,0.935-2.518,1.061c-8.924,2.919-17.435,6.969-26.621,9.192c-16.698,4.042-33.47,5.856-50.751,4.455
		c-19.231-1.559-37.291-6.778-54.592-14.73c-12.25-5.631-23.474-13.073-34.002-21.418C56.627,276.07,42.859,260.142,32.1,241.804
		c-11.971-20.404-19.352-42.198-21.232-65.932c-2.095-26.463,2.915-51.414,14.145-75.267c7.735-16.429,18.108-31.148,30.62-44.478
		C69.978,40.844,86.656,28.605,105.4,19.315c17.31-8.579,35.654-14.345,55.213-15.511c2.605-0.155,5.116-1.064,7.758-0.9
		C192.937,1.896,216.262,6.892,238.541,16.962z"/>
	<path fill="#E7E7E6" d="M239.412,311.256c0.579-0.286,1.159-0.571,1.738-0.857c12.402-6.788,24.486-14.018,35.441-23.01
		c14.359-11.786,26.399-25.54,36.267-41.102c10.166-16.032,17.628-33.254,21.463-51.836c4.41-21.368,4.1-42.723-0.896-64.002
		c-0.347-1.476-1.895-3.5,0.878-4.52c4.412,15.48,6.251,31.34,5.085,47.289c-1.863,25.47-9.695,49.175-22.828,71.354
		c-9.691,16.368-21.979,30.479-36.22,42.834c-15.162,13.153-32.537,22.994-51.548,30.099c-19.876,7.428-40.32,10.866-61.488,10.008
		c-13.734-0.557-27.17-3.056-40.261-7.256c-0.81-0.26-1.697-0.284-2.548-0.418c-4.476-1.922-8.928-3.901-13.431-5.758
		c-24.213-9.984-44.439-25.479-61.556-44.749c-16.261-18.307-27.702-39.469-34.633-62.905c-0.322-1.09-0.631-2.184-0.946-3.277
		c-4.394-15.472-6.243-31.321-5.082-47.261c1.855-25.456,9.654-49.158,22.795-71.316c9.692-16.343,21.944-30.468,36.17-42.831
		c15.147-13.164,32.515-22.995,51.494-30.123c19.988-7.507,40.574-10.952,61.876-10.057c19.065,0.801,37.285,5.405,54.775,12.858
		c1.15,0.49,2.54,0.892,2.585,2.542c-4.975,0.87-8.682-2.544-12.91-3.984c-11.745-4.003-23.614-6.906-36.017-8.189
		c-7.229-0.748-14.4-0.407-21.592-0.697c-6.524-0.808-12.934,0.469-19.245,1.574c-22.806,3.993-43.732,12.637-62.889,25.512
		c-24.762,16.641-43.996,37.997-57.698,64.31c-8.459,16.245-14.18,33.294-16.312,51.389c-3.007,25.512,0.306,50.267,10.361,74.055
		c8.138,19.254,19.335,36.504,33.845,51.776c22.955,24.163,50.503,40.624,83.026,48.742c16.09,4.017,32.489,4.843,49.083,3.349
		c17.044-1.535,33.186-5.99,48.709-12.905C237.698,311.538,238.523,311.268,239.412,311.256z"/>
	<path fill="#E6E6E5" d="M314.729,87.143c-0.941-1.778-2.889-3.453-1.321-5.829c3.688,2.474,4.817,6.685,6.825,10.211
		c6.178,10.849,10.201,22.608,14.069,34.405c-2.276,4.062,0.661,7.684,1.232,11.431c2.107,13.831,2.731,27.586,1.573,41.582
		c-1.48,17.872-6.673,34.623-14.317,50.619c-7.399,15.483-17.085,29.546-28.867,42.309c-13.975,15.138-30.3,27.02-48.39,36.762
		c-1.376,0.741-2.918,1.184-4.383,1.766c2.983-3.766,7.709-4.884,11.584-7.274c11.287-6.961,21.963-14.596,31.664-23.66
		c20.172-18.847,34.891-41.132,44.182-66.869c4.31-11.94,6.466-24.313,7.621-37.007c2.414-26.526-3.298-51.373-14.238-75.321"/>
	<path fill="#D1D0D0" d="M181.951,9.227c22.239,0.474,42.766,6.76,62.396,16.901c18.343,9.476,33.819,22.344,47.662,37.224
		c8.002,8.601,14.799,18.198,20.55,28.425c2.928,5.207,6.568,10.119,7.83,16.127c1.436,0.911,2.033,2.384,2.611,3.852
		c7.778,19.761,11.021,40.299,9.714,61.381c-1.969,31.763-13.394,60.113-33.547,84.928c-19.858,24.451-43.93,43.474-74.136,54.233
		c-21.048,7.496-42.705,10.069-65.03,8.047c-16.806-1.522-32.863-5.63-48.116-12.563c-15.362-6.983-29.451-16.035-41.77-27.529
		c-11.922-11.124-23.086-22.88-31.628-36.891c-12.283-20.147-20.278-41.552-22.429-65.153c-2.202-24.152,1.158-47.349,10.529-69.652
		c7.842-18.665,19.025-35.192,33.285-49.84c13.804-14.179,29.211-26.116,46.931-35.035c15.903-8.004,32.829-12.823,50.616-14.751
		c6.363-0.69,12.714-0.903,19.096-0.837C178.41,8.112,180.301,8.093,181.951,9.227z"/>
	<path fill="#DFDFDE" d="M181.951,9.227c-18.48-0.63-36.614,1.44-54.226,7.104c-16.789,5.399-31.904,13.912-46.03,24.295
		c-7.123,5.236-13.253,11.464-19.517,17.585C38.992,80.866,24.16,108.086,18.6,139.67c-5.34,30.337-1.069,59.678,12.331,87.772
		c10.313,21.622,25.361,39.579,43.318,55.048c21.473,18.497,46.403,30.892,74.793,35.44c22.94,3.675,45.682,2.479,68.057-4.262
		c24.996-7.531,46.239-20.883,64.971-38.73c20.191-19.237,34.951-41.628,43.321-68.063c2.841-8.973,4.467-18.155,5.516-27.519
		c2.774-24.761-1.421-48.434-10.517-71.451c1.481-0.954,2.498-2.101,3.666,0.783c5.442,13.427,8.855,27.225,10.367,41.651
		c2.951,28.15-2.339,54.738-14.88,79.921c-6.758,13.57-15.474,25.923-25.661,37.398c-15.697,17.684-34.345,31.357-55.632,41.468
		c-15.408,7.318-31.718,11.774-48.943,13.442c-28.858,2.794-56.137-2.044-81.964-14.706c-13.75-6.741-26.256-15.334-37.913-25.345
		c-17.982-15.443-31.784-33.889-42.04-54.852c-7.488-15.304-11.881-31.591-13.602-48.676c-2.091-20.761,0.273-40.903,6.683-60.607
		c5.023-15.44,12.844-29.572,22.354-42.794c6.202-8.623,13.086-16.691,20.866-23.949C75.061,41.029,87.522,31.918,101.3,24.414
		c14.46-7.875,29.697-13.325,45.825-16.4c9.795-1.868,19.737-2.552,29.739-2.236C179.435,5.86,180.729,7.402,181.951,9.227z"/>
	<path fill="#E6E6E5" d="M239.412,311.256c-15.576,7.424-31.883,12.123-49.166,13.889c-6.815,0.696-13.569,0.604-20.348,0.661
		c-19.512,0.164-37.958-4.703-55.836-11.983c-16.024-6.525-30.534-15.619-43.734-26.56c-11.281-9.35-21.15-20.089-29.647-32.08
		c-13.758-19.415-23.452-40.505-27.897-63.791c-2.598-13.607-2.829-27.314-1.659-41.179c1.495-17.729,6.61-34.343,14.16-50.27
		C32.589,84.536,42.07,70.502,53.729,57.83c11.646-12.657,24.836-23.312,39.633-32.095c17.755-10.538,36.76-17.783,57.328-20.824
		c3.694-0.546,7.374-1.275,11.09-1.562c2.053-0.158,4.343-0.892,6.243,0.741c-19.181,1.141-37.646,5.246-55.202,13.042
		c-18.202,8.083-34.469,18.949-48.988,32.5C49.536,62.978,38.061,78.282,28.908,95.424c-8.842,16.558-14.432,34.099-16.603,52.615
		c-2.275,19.403-0.404,38.51,5.068,57.347c6.102,21.006,16.523,39.78,30.151,56.759c14.661,18.264,32.659,32.814,53.459,44.011
		c15.227,8.197,31.313,14.001,48.379,16.736c12.074,1.935,24.234,2.558,36.61,1.499c18.094-1.548,35.166-6.069,51.565-13.494
		C238.295,310.554,238.903,310.546,239.412,311.256z"/>
	<path fill="#F0EFEF" d="M23.513,170.141c0.426-4.973-0.911-10.034,0.784-14.939c0.018-1.767,0.036-3.533,0.054-5.3
		c0.697-6.304,0.924-12.692,3.417-18.677c0.032-0.331,0.064-0.662,0.096-0.993c1.355-9.431,5.26-18.052,8.767-26.799
		c3.861-8.287,8.396-16.189,13.851-23.565c1.489-2.587,3.465-4.828,5.265-7.193c1.437-1.611,2.874-3.222,4.31-4.833
		c1.079-2.184,3.154-3.548,4.602-5.428c1.39-1.09,2.779-2.18,4.169-3.271c0.985-2.009,2.626-3.364,4.55-4.437
		C80.518,47.625,88.949,42.25,97.472,37c6.054-3.924,12.713-6.684,19.226-9.726l-0.051,0.027c4.764-2.141,9.707-3.78,14.759-5.116
		c8.004-2.31,16.065-4.322,24.439-4.83c1.282-0.078,2.583-0.366,3.616-1.264c1.897,0.027,3.795,0.055,5.692,0.082
		c5.876,0.289,11.82-0.963,17.631,0.763c1.772,0.001,3.544,0.002,5.315,0.002c7.22,0.175,14.229,1.77,21.28,3.072
		c9.054,2.513,18.1,5.057,26.583,9.182c8.48,3.708,16.303,8.554,24.07,13.499c2.623,1.469,4.897,3.414,7.295,5.189
		c1.634,1.416,3.269,2.833,4.903,4.249c2.219,1.062,3.602,3.108,5.509,4.537c1.106,1.369,2.213,2.738,3.319,4.107
		c2.038,0.971,3.413,2.588,4.502,4.485c6.712,6.121,11.508,13.689,16.408,21.171c0.78,1.191,1.273,2.558,2.683,3.218
		c2.366,6.357,6.235,12.016,8.744,18.305l-0.027-0.05c2.103,4.799,4.121,9.627,5.038,14.821c3.57,9.738,4.962,19.892,5.817,30.128
		c0.164,1.963,0.495,3.921,0.497,5.902c-0.024,4.878,0.077,9.754-0.059,14.63c0.027,1.88,0.055,3.761,0.082,5.641
		c-2.222,4.096-1.046,8.88-2.724,13.085c-0.099,3.479-2.011,6.677-1.637,10.23c-1.499,1.042-1.135,2.7-1.412,4.146
		c-1.725,3.308-2.207,7.064-3.86,10.398l0.033-0.046c-1.18,3.012-2.379,6.017-3.53,9.039
		c-11.727,24.537-28.483,44.921-51.285,60.311c-2.883,2.63-6.401,4.291-9.751,6.208c-7.432,4.299-15.185,7.947-23.19,11.083
		c-3.852,1.703-7.999,2.525-11.968,3.889c-11.6,3.22-23.418,5.079-35.456,5.601c-4.177-0.001-8.351,0.026-12.525-0.015
		c-9.286-0.701-18.55-1.545-27.617-3.819c-0.876-0.22-1.667-0.362-2.129-1.196c-1.966-0.438-4.132,0.333-5.958-0.956
		c-3.632-0.991-7.259-1.998-10.725-3.486l0.047,0.033c-2.962-1.156-5.975-2.186-8.884-3.474
		c-7.458-3.696-15.024-7.225-21.916-11.905c-15.525-10.543-28.881-23.275-39.568-38.644c-2.668-2.841-4.353-6.308-6.299-9.609
		c-3.847-7.558-8.167-14.899-10.837-22.996"/>
	<path fill="#878482" d="M30.218,206.648c-0.084,0.413-0.315,0.718-0.693,0.916"/>
	<path fill="#878482" d="M24.27,170.607"/>
	<path fill="#878482" d="M23.364,173.279"/>
	<path fill="#858381" d="M318.05,122.485c0.225-0.4,0.469-0.391,0.728-0.032"/>
	<path fill="#8A8785" d="M131.385,22.732c-0.422-0.091-0.725-0.333-0.926-0.706"/>
	<path fill="#8A8785" d="M156.504,17.842"/>
	<path fill="#83807E" d="M36.631,103.433"/>
	<path fill="#83807E" d="M28.6,123.947"/>
	<path fill="#83807E" d="M27.864,130.232"/>
	<path fill="#858381" d="M231.783,26.598"/>
	<path fill="#858381" d="M209.805,19.602"/>
	<path fill="#858381" d="M209.76,20.543"/>
	<path fill="#9A9897" d="M24.298,155.201"/>
	<path fill="#9A9897" d="M22.78,156.406"/>
	<path fill="#999795" d="M324.661,173.38"/>
	<path fill="#999795" d="M324.857,155.81"/>
	<path fill="#858381" d="M97.473,36.998"/>
	<path fill="#858381" d="M116.699,27.274"/>
	<path fill="#807D7C" d="M188.1,16.938"/>
	<path fill="#807D7C" d="M209.805,19.602c-0.015,0.314-0.03,0.627-0.044,0.941"/>
	<path fill="#858381" d="M313.396,107.951"/>
	<path fill="#858381" d="M304.652,89.646"/>
	<path fill="#817F7D" d="M24.352,149.902"/>
	<path fill="#807D7C" d="M116.648,27.301"/>
	<path fill="#807D7C" d="M131.385,22.733"/>
	<path fill="#807E7C" d="M318.778,122.454"/>
	<path fill="#807E7C" d="M313.368,107.9"/>
	<path fill="#8B8987" d="M44.389,239.894"/>
	<path fill="#8B8987" d="M50.687,249.504"/>
	<path fill="#8B8987" d="M250.576,292.394"/>
	<path fill="#8B8987" d="M260.327,286.186"/>
	<path fill="#868482" d="M315.109,216.881"/>
	<path fill="#868482" d="M318.967,206.483"/>
	<path fill="#817F7D" d="M29.525,207.564c0.231-0.305,0.462-0.611,0.693-0.916"/>
	<path fill="#817F7D" d="M33.551,216.898"/>
	<path fill="#868482" d="M121.009,303.494"/>
	<path fill="#868482" d="M131.733,306.981"/>
	<path fill="#7E7B79" d="M320.381,202.336"/>
	<path fill="#7E7C7A" d="M112.171,300.053"/>
	<path fill="#7E7C7A" d="M121.055,303.527"/>
	<path fill="#8D8B89" d="M50.482,79.867"/>
	<path fill="#8C8A89" d="M267.328,47.88"/>
	<path fill="#8C8A89" d="M260.033,42.691"/>
	<path fill="#7E7C7A" d="M311.612,225.874"/>
	<path fill="#7E7C7A" d="M315.142,216.835"/>
	<path fill="#93918F" d="M285.561,65.257"/>
	<path fill="#93918F" d="M68.829,59.143"/>
	<path fill="#8F8D8B" d="M60.058,67.841"/>
	<path fill="#8F8D8B" d="M277.74,56.665"/>
</g>
<g>
	<path fill="#998945" d="M233.648,120.475c-0.758-2.31-2.888-4.158-4.615-5.607c-2.074-0.853-3.923-2.227-6.317-2.404
		c-1.964-0.145-3.874,0.061-5.789,0.235c-4.945,1.979-9.322,5.79-8.248,12.904c0.406,2.688,0.617,5.078-1.857,6.465
		c-6.202,3.476-9.787,9.526-14.735,14.22c-1.42,1.347-1.722,1.846-4.664,0.619c-1.318,9.119-8.453,7.385-14.372,14.985
		c0.055,0.565-2.683,2.542-2.603,2.901c-7.942-28.408-3.936-21.253-5.886-26.531c-12.158-32.9-9.03-26.696,3.974-55.035
		c0.102-0.223,0.22-0.445,0.276-0.681c0.884-3.751,2.91-5.648,7.12-5.874c5.17-0.278,7.294-3.836,6.463-8.725
		c-0.232-1.363-0.572-8.538-9.616-5.727c-4.992,1.551-6.977,3.954-6.473,8.834c0.216,2.091,2.034,3.866,0.718,6.293
		c-3.563,6.57-9.845,16.242-13.38,23.067c-6.201-8.816-6.842-21.442-12.048-30.176c-2.382-3.997-3.519-7.16-1.315-12.038
		c4.671-10.338-6.414-16.658-2.211-13.41c0.329,0.683,0.193-0.589-3.709-2.744c-0.452-0.249-5.608-2.509-6.102-2.643
		c-5.395-0.565-13.1,2.957-13.821,5.993c-1.4,5.888-6.333,21.991,9.35,21.989c8.018-0.001,9.724,4.628,11.866,10.17
		c6.628,17.145,16.239,45.728,18.038,65.833c-5.4-4.952-15.709-20.158-17.61-26.744c-0.761-0.008-2.482,3.04-3.243,3.032
		c-0.547-0.4-1.094-0.799-1.625-1.179c-9.321-5.384-18.574-10.939-28.044-16.1c-2.94-1.602-4.833-2.899-5.49-6.67
		c-1.121-6.437-5.273-6.595-11.098-5.721c-0.43-0.459-8.506,6.247-7.208,10.702c1.521,5.222,6.729,8.304,12.179,6.231
		c4.906-1.866,8.409-0.388,12.155,2.401c16.138,12.013,28.868,24.584,41.73,40.332c2.81,3.44,5.237,6.667,7.601,10.317
		c14.061,21.716-3.969,65.528-4.621,66.859c-0.886,5.068,1.117,6.281,5.883,4.778c5.75-1.814,11.633-3.212,17.459-4.789
		c-0.344-19.577,1.589-47.301,14.953-64.093c8.919-11.207,14.659-15.042,24.653-25.574c2.208-2.327,4.056-2.38,7.054-1.882
		C231.576,137.473,235.355,125.677,233.648,120.475z M171.797,65.437c0.698-0.648,1.656-1.069,2.894-1.069
		c0.384,0,0.738,0.046,1.071,0.12c0.64,0.085,1.12,0.324,1.484,0.659c1.271,0.919,1.833,2.516,1.708,4.053
		c0.002,0.041,0.018,0.079,0.02,0.12c0.011,0.01,0.019,0.026,0.031,0.035c-0.009,0.008-0.017,0.016-0.026,0.024
		c0.05,2.247-1.374,4.532-4.287,4.532c-0.204,0-0.391-0.025-0.58-0.047c-0.161,0.015-0.31,0.047-0.48,0.047
		C168.599,73.911,167.991,67.096,171.797,65.437z M132.314,58.977c-1.18,1.624-3.084,2.748-5.718,2.748
		c-2.706,0-4.644-1.185-5.815-2.882c-0.635-0.814-1.073-1.839-1.224-3.069c-0.694-4.088,1.652-8.779,7.04-8.779
		c4.434,0,6.805,3.179,7.12,6.582c0.135,0.342,0.219,0.694,0.214,1.059C133.904,56.598,133.335,57.989,132.314,58.977z
		 M92.632,100.606c-0.003,0.004-0.006,0.008-0.008,0.012c-0.699,1.048-1.859,1.795-3.513,1.795c-0.198,0-0.373-0.035-0.558-0.055
		c-0.168,0.018-0.323,0.055-0.503,0.055c-1.299,0-2.289-0.468-2.998-1.172c-0.047-0.039-0.089-0.083-0.134-0.125
		c-0.049-0.053-0.098-0.105-0.144-0.161c-0.509-0.541-0.849-1.237-0.948-2.119c-0.413-2.452,0.994-5.262,4.224-5.262
		c0.197,0,0.374,0.029,0.556,0.05c0.168-0.017,0.325-0.05,0.505-0.05C93.179,93.575,94.342,98.023,92.632,100.606z M220.187,129.475
		c-3.622-0.125-5.538-2.768-5.405-6.492c0.018-0.49,0.1-0.914,0.22-1.297c0.071-0.605,0.278-1.178,0.566-1.705
		c0.454-1.343,1.511-2.449,3.161-2.742c0.545-0.272,1.183-0.438,1.935-0.438c0.212,0,0.411,0.021,0.606,0.045
		c0.153-0.014,0.293-0.045,0.455-0.045c1.554,0,2.671,0.661,3.382,1.609c1.334,1.056,1.845,2.882,1.505,4.531
		c0.039,0.128,0.068,0.235,0.111,0.371C225.776,126.968,223.72,129.597,220.187,129.475z"/>
	<path fill="#00A75D" d="M148.42,226.847c-0.886,5.068,1.117,6.281,5.883,4.778c5.75-1.814,11.633-3.212,17.459-4.789
		c84.08-15.565,150.381,7.242,132.698,3.654c-169.525-13.401-187.728,24.682-210.296,33.451
		c7.249-13.872,35.754-33.955,31.408-31.714c-16.579,0-21.124,2.285-71.782,10.413C89.547,227.367,124.708,225.324,148.42,226.847z"
		/>
	<path fill="#EA5B0C" d="M115.015,161.357c20.501-1.805,35.932,5.693,42.565,20.682c4.222,9.541,2.525,12.065-7.722,12.836
		c-16.757,1.26-28.245-6.099-35.634-20.649c-0.881-1.734-1.555-3.6-2.626-5.205C107.527,162.924,107.911,161.983,115.015,161.357z"
		/>
	<path fill="#EA5B0C" d="M203.479,197.034c-6.926,10.791-16.813,12.662-28.005,11.415c-3.485-0.388-2.196-2.386-1.742-4.182
		c1.803-7.146,23.637-29.567,40.348-21.172C220.862,186.503,193.84,195.425,203.479,197.034z"/>
	<path fill="#EA5B0C" d="M227.545,152.305c-9.736,11.75-21.296,15.323-32.275,10.233c-4.76-2.206-5.651-4.415-1.782-8.574
		C201.697,145.141,213.417,144.402,227.545,152.305z"/>
	<path fill="#EA5B0C" d="M128.241,129.1c-0.695-0.8-1.982-2.692-3.967-4.24c-8.306-6.476-15.113-4.061-17.005-3.644
		c-5.798,1.276-10.346,2.466-9.807,7.638c0.55,5.278,10.901,7.206,17.128,7.754c1.662-0.24,8.128-3.973,9.957-4.561
		c2.093-0.673,3.167-1.818,3.713-2.87C128.253,129.151,128.248,129.125,128.241,129.1z"/>
	<path fill="#EA5B0C" d="M194.256,144.622c-4.898,4.688-8.307,0.967-11.01-2.472c-4.161-5.295-2.451-14.588,2.342-19.441
		c3.332-3.374,4.901-2.128,7.105,1.032c4.726,6.777,3.886,13.774,1.487,20.96C194.181,144.702,194.256,144.622,194.256,144.622z"/>
	<path fill="#EA5B0C" d="M143.893,75.478c-3.479-6.774,2.884-21.323,10.015-23.617c1.487-0.478,2.047-0.11,2.814,1.187
		c4.236,7.166,0.67,20.06-6.683,24.072C147.177,78.683,144.931,78.933,143.893,75.478z"/>
	<path fill="#EA5B0C" d="M176.237,99.079c5.327-0.942,5.542,1.555,3.421,5.997c-3.878,8.125-9.975,11.94-18.426,11.963
		c-4.768,0.013-5.326-2.172-4.376-5.916C158.706,103.834,165.876,99.254,176.237,99.079z"/>
	<path fill="#EA5B0C" d="M133.63,120.2c-0.547-0.4-1.094-0.799-1.625-1.179c-2.197-6.311-6.504-12.086-3.798-19.564
		c1.622-4.481,3.282-4.849,6.505-1.679c4.804,4.723,7.923,10.038,6.184,17.041c-0.648,2.608-1.42,5.346-4.994,5.374
		c0,0,0.073,0.032,0.073,0.032C135.209,118.684,134.434,118.048,133.63,120.2z"/>
</g>
<path fill="#EA5B0C" d="M106.002,108.522c-0.404-0.262-0.808-0.524-1.201-0.773c-1.623-4.138-4.807-7.925-2.807-12.828
	c1.199-2.938,2.425-3.179,4.808-1.101c3.55,3.097,5.856,6.582,4.57,11.174c-0.479,1.71-1.05,3.505-3.691,3.524
	c0,0,0.054,0.021,0.054,0.021C107.169,107.528,106.597,107.111,106.002,108.522z"/>
</svg>
