<?xml version="1.0" encoding="utf-8"?>
<!-- Generator: Adobe Illustrator 17.0.0, SVG Export Plug-In . SVG Version: 6.00 Build 0)  -->
<!DOCTYPE svg PUBLIC "-//W3C//DTD SVG 1.1//EN" "http://www.w3.org/Graphics/SVG/1.1/DTD/svg11.dtd">
<svg version="1.1" id="Layer_1" xmlns="http://www.w3.org/2000/svg" xmlns:xlink="http://www.w3.org/1999/xlink" x="0px" y="0px"
	 width="562.357px" height="471.418px" viewBox="0 0 562.357 471.418" enable-background="new 0 0 562.357 471.418"
	 xml:space="preserve">
<g>
	<path fill="#998945" d="M364.488,165.234c-1.536-4.705-5.852-8.467-9.353-11.42c-4.203-1.738-7.95-4.536-12.801-4.897
		c-3.979-0.296-7.851,0.125-11.732,0.479c-10.022,4.03-18.892,11.792-16.714,26.281c0.823,5.475,1.25,10.342-3.764,13.166
		c-12.568,7.079-19.834,19.401-29.861,28.96c-2.878,2.743-3.49,3.76-9.452,1.261c-2.671,18.571-17.13,15.04-29.125,30.519
		c0.112,1.15-5.438,5.176-5.275,5.908c-16.095-57.856-7.976-43.285-11.928-54.033c-24.639-67.005-18.3-54.369,8.053-112.083
		c0.207-0.453,0.447-0.907,0.559-1.386c1.791-7.64,5.897-11.503,14.43-11.963c10.477-0.566,14.782-7.812,13.098-17.769
		c-0.469-2.775-1.16-17.388-19.487-11.664c-10.116,3.159-14.139,8.053-13.117,17.99c0.438,4.258,4.122,7.874,1.454,12.817
		c-7.221,13.38-19.952,33.078-27.115,46.979c-12.566-17.954-13.866-43.669-24.416-61.456c-4.828-8.14-7.132-14.582-2.665-24.517
		c9.466-21.054-12.998-33.926-4.48-27.311c0.667,1.39,0.392-1.199-7.516-5.589c-0.915-0.508-11.365-5.11-12.365-5.383
		c-10.932-1.15-26.547,6.022-28.009,12.205c-2.836,11.991-12.834,44.787,18.948,44.783c16.249-0.002,19.705,9.426,24.047,20.713
		c13.432,34.917,32.91,93.129,36.555,134.075c-10.943-10.085-31.835-41.054-35.688-54.466c-1.542-0.016-5.029,6.19-6.571,6.174
		c-1.108-0.814-2.216-1.628-3.294-2.402c-18.89-10.964-37.64-22.278-56.831-32.79c-5.958-3.263-9.795-5.905-11.126-13.585
		c-2.272-13.11-10.685-13.432-22.49-11.652c-0.871-0.935-17.237,12.722-14.607,21.796c3.082,10.635,13.636,16.912,24.681,12.691
		c9.942-3.8,17.04-0.79,24.633,4.89c32.705,24.466,58.502,50.068,84.568,82.139c5.694,7.006,10.614,13.577,15.403,21.011
		c28.494,44.227-8.043,133.455-9.364,136.165c-1.795,10.322,2.263,12.792,11.923,9.73c11.653-3.694,23.576-6.541,35.381-9.754
		c-0.697-39.871,3.219-96.332,30.302-130.532c18.075-22.824,29.706-30.634,49.959-52.083c4.475-4.739,8.219-4.847,14.294-3.832
		C360.289,199.851,367.946,175.828,364.488,165.234z M239.146,53.143c1.415-1.32,3.357-2.176,5.865-2.176
		c0.778,0,1.495,0.093,2.169,0.244c1.296,0.173,2.27,0.659,3.008,1.341c2.576,1.872,3.714,5.124,3.461,8.254
		c0.005,0.083,0.037,0.161,0.04,0.244c0.022,0.02,0.039,0.053,0.062,0.07c-0.018,0.016-0.034,0.034-0.053,0.05
		c0.101,4.576-2.784,9.23-8.687,9.23c-0.414,0-0.793-0.051-1.176-0.096c-0.326,0.031-0.628,0.096-0.974,0.096
		C232.665,70.4,231.432,56.523,239.146,53.143z M159.133,39.987c-2.392,3.307-6.249,5.597-11.587,5.597
		c-5.485,0-9.41-2.414-11.785-5.869c-1.288-1.657-2.175-3.745-2.481-6.251c-1.406-8.325,3.347-17.88,14.266-17.88
		c8.986,0,13.792,6.474,14.43,13.406c0.273,0.697,0.444,1.413,0.434,2.157C162.354,35.141,161.201,37.975,159.133,39.987z
		 M78.716,124.769c-0.006,0.008-0.011,0.016-0.017,0.024c-1.416,2.134-3.768,3.656-7.119,3.656c-0.402,0-0.756-0.07-1.13-0.112
		c-0.341,0.037-0.654,0.112-1.02,0.112c-2.633,0-4.638-0.954-6.076-2.386c-0.095-0.08-0.18-0.17-0.271-0.255
		c-0.099-0.108-0.198-0.214-0.291-0.327c-1.031-1.101-1.721-2.519-1.922-4.315c-0.838-4.993,2.014-10.717,8.56-10.717
		c0.399,0,0.757,0.059,1.127,0.101c0.341-0.034,0.659-0.101,1.022-0.101C79.823,110.45,82.181,119.507,78.716,124.769z
		 M337.209,183.563c-7.34-0.255-11.223-5.638-10.953-13.222c0.036-0.999,0.202-1.862,0.445-2.642
		c0.143-1.232,0.564-2.399,1.147-3.472c0.919-2.734,3.062-4.987,6.407-5.585c1.105-0.553,2.397-0.892,3.921-0.892
		c0.43,0,0.832,0.042,1.229,0.091c0.309-0.028,0.594-0.091,0.921-0.091c3.149,0,5.414,1.346,6.854,3.277
		c2.704,2.151,3.739,5.87,3.051,9.228c0.079,0.26,0.137,0.478,0.225,0.756C348.534,178.457,344.369,183.812,337.209,183.563z"/>
	<path fill="#00A75D" d="M191.771,381.87c-1.795,10.322,2.263,12.792,11.923,9.73c11.653-3.694,23.576-6.541,35.381-9.754
		c170.39-31.7,304.752,14.749,268.915,7.441c-343.547-27.292-380.435,50.267-426.171,68.127
		c14.691-28.251,72.457-69.152,63.65-64.588c-33.597,0-42.808,4.654-145.468,21.206C72.464,382.929,143.719,378.769,191.771,381.87z
		"/>
	<path fill="#EA5B0C" d="M124.074,248.494c41.545-3.676,72.818,11.595,86.259,42.121c8.556,19.431,5.117,24.572-15.649,26.141
		c-33.959,2.566-57.24-12.421-72.212-42.054c-1.784-3.532-3.151-7.331-5.323-10.6C108.9,251.684,109.678,249.768,124.074,248.494z"
		/>
	<path fill="#EA5B0C" d="M303.35,321.154c-14.035,21.976-34.071,25.787-56.752,23.248c-7.063-0.791-4.45-4.859-3.531-8.517
		c3.655-14.553,47.902-60.216,81.767-43.119C338.577,299.705,283.816,317.876,303.35,321.154z"/>
	<path fill="#EA5B0C" d="M352.119,230.058c-19.73,23.929-43.156,31.207-65.406,20.841c-9.646-4.494-11.453-8.992-3.612-17.461
		C299.739,215.467,323.489,213.962,352.119,230.058z"/>
	<path fill="#EA5B0C" d="M150.878,182.798c-1.408-1.629-4.016-5.483-8.039-8.635c-16.833-13.189-30.627-8.27-34.46-7.422
		c-11.75,2.598-20.967,5.022-19.874,15.556c1.115,10.749,22.091,14.676,34.711,15.792c3.368-0.489,16.471-8.091,20.177-9.289
		c4.242-1.371,6.418-3.703,7.524-5.845C150.903,182.903,150.892,182.85,150.878,182.798z"/>
	<path fill="#EA5B0C" d="M284.659,214.412c-9.927,9.549-16.834,1.969-22.311-5.035c-8.433-10.784-4.967-29.71,4.746-39.594
		c6.753-6.872,9.932-4.333,14.398,2.102c9.578,13.801,7.875,28.051,3.014,42.688C284.507,214.574,284.659,214.412,284.659,214.412z"
		/>
	<path fill="#EA5B0C" d="M182.597,73.593c-7.051-13.796,5.844-43.427,20.296-48.098c3.014-0.974,4.147-0.225,5.702,2.418
		c8.585,14.595,1.358,40.853-13.543,49.025C189.252,80.12,184.7,80.629,182.597,73.593z"/>
	<path fill="#EA5B0C" d="M248.144,121.659c10.796-1.918,11.231,3.166,6.933,12.214c-7.859,16.547-20.214,24.316-37.34,24.363
		c-9.663,0.027-10.793-4.423-8.868-12.049C212.615,131.343,227.146,122.014,248.144,121.659z"/>
	<path fill="#EA5B0C" d="M161.799,164.673c-1.108-0.814-2.216-1.628-3.294-2.402c-4.452-12.854-13.181-24.615-7.696-39.844
		c3.287-9.127,6.65-9.875,13.183-3.42c9.735,9.62,16.057,20.443,12.532,34.706c-1.313,5.311-2.879,10.888-10.121,10.945
		c0,0.001,0.148,0.066,0.148,0.066C164.999,161.587,163.429,160.29,161.799,164.673z"/>
</g>
<path fill="#EA5B0C" d="M101.487,135.326c-0.876-0.556-1.751-1.113-2.603-1.641c-3.518-8.785-10.416-16.823-6.082-27.231
	c2.597-6.238,5.255-6.749,10.417-2.338c7.693,6.574,12.689,13.971,9.903,23.719c-1.037,3.63-2.275,7.441-7.998,7.48
	c0,0,0.117,0.045,0.117,0.045C104.016,133.216,102.776,132.33,101.487,135.326z"/>
<rect x="149.054" y="399.506" fill="none" width="413.302" height="71.912"/>
<text transform="matrix(1 0 0 1 208.9472 444.8652)" fill="#00A75D" font-family="'Avenir-Roman'" font-size="60">AgroSocial</text>
</svg>
